<svg width="203" height="66" viewBox="0 0 203 66" fill="none" xmlns="http://www.w3.org/2000/svg">
<path d="M19.1389 3H30.3656C36.3615 3 41.2222 7.86069 41.2222 13.8566V13.8566C41.2222 19.8526 36.3615 24.7133 30.3656 24.7133H23.0035H36.8566C45.7724 24.7133 53 31.9409 53 40.8566V40.8566C53 49.7724 45.7724 57 36.8566 57H0" stroke="#041119" stroke-width="5"/>
<path d="M68.4886 57.4474C67.304 57.4474 66.2216 57.2173 65.2415 56.7571C64.2614 56.2884 63.4815 55.6151 62.902 54.7372C62.3224 53.8509 62.0327 52.777 62.0327 51.5156C62.0327 50.544 62.2159 49.7259 62.5824 49.0611C62.9489 48.3963 63.4688 47.8509 64.142 47.4247C64.8153 46.9986 65.6122 46.6619 66.5327 46.4148C67.4531 46.1676 68.4673 45.9759 69.5753 45.8395C70.6747 45.7031 71.6037 45.5838 72.3622 45.4815C73.1293 45.3793 73.7131 45.2173 74.1136 44.9957C74.5142 44.7741 74.7145 44.4162 74.7145 43.9219V43.4616C74.7145 42.1236 74.3139 41.071 73.5128 40.304C72.7202 39.5284 71.5781 39.1406 70.0866 39.1406C68.6719 39.1406 67.517 39.4517 66.6222 40.0739C65.7358 40.696 65.1136 41.429 64.7557 42.2727L62.5952 41.4929C63.0384 40.419 63.652 39.5625 64.4361 38.9233C65.2202 38.2756 66.098 37.8111 67.0696 37.5298C68.0412 37.2401 69.0256 37.0952 70.0227 37.0952C70.7727 37.0952 71.5526 37.1932 72.3622 37.3892C73.1804 37.5852 73.9389 37.9261 74.6378 38.4119C75.3366 38.8892 75.9034 39.5582 76.3381 40.419C76.7727 41.2713 76.9901 42.3537 76.9901 43.6662V57H74.7145V53.8935H74.5739C74.3011 54.473 73.8963 55.0355 73.3594 55.581C72.8224 56.1264 72.1491 56.5739 71.3395 56.9233C70.5298 57.2727 69.5795 57.4474 68.4886 57.4474ZM68.7955 55.3636C70.0057 55.3636 71.054 55.0952 71.9403 54.5582C72.8267 54.0213 73.5085 53.3097 73.9858 52.4233C74.4716 51.5284 74.7145 50.544 74.7145 49.4702V46.6321C74.544 46.794 74.2585 46.9389 73.858 47.0668C73.4659 47.1946 73.0099 47.3097 72.4901 47.4119C71.9787 47.5057 71.4673 47.5866 70.956 47.6548C70.4446 47.723 69.9844 47.7827 69.5753 47.8338C68.4673 47.9702 67.5213 48.1832 66.7372 48.473C65.9531 48.7628 65.3523 49.1634 64.9347 49.6747C64.517 50.1776 64.3082 50.8253 64.3082 51.6179C64.3082 52.8111 64.7344 53.7358 65.5866 54.392C66.4389 55.0398 67.5085 55.3636 68.7955 55.3636ZM80.7166 62.5866V54.8523H82.4169C82.843 54.375 83.2138 53.8594 83.5291 53.3054C83.8445 52.7514 84.1172 52.1207 84.3473 51.4134C84.5859 50.6974 84.7862 49.8665 84.9482 48.9205C85.1101 47.9659 85.2464 46.8537 85.3572 45.5838L86.0732 37.3636H97.6939V54.8523H100.609V62.5866H98.3331V57H83.005V62.5866H80.7166ZM85.0376 54.8523H95.4183V39.5114H88.1953L87.6072 45.5838C87.4027 47.6463 87.1129 49.4446 86.7379 50.9787C86.3629 52.5128 85.7962 53.804 85.0376 54.8523ZM110.43 57.4474C109.245 57.4474 108.163 57.2173 107.183 56.7571C106.203 56.2884 105.423 55.6151 104.843 54.7372C104.264 53.8509 103.974 52.777 103.974 51.5156C103.974 50.544 104.157 49.7259 104.524 49.0611C104.89 48.3963 105.41 47.8509 106.083 47.4247C106.757 46.9986 107.554 46.6619 108.474 46.4148C109.395 46.1676 110.409 45.9759 111.517 45.8395C112.616 45.7031 113.545 45.5838 114.304 45.4815C115.071 45.3793 115.654 45.2173 116.055 44.9957C116.456 44.7741 116.656 44.4162 116.656 43.9219V43.4616C116.656 42.1236 116.255 41.071 115.454 40.304C114.662 39.5284 113.52 39.1406 112.028 39.1406C110.613 39.1406 109.458 39.4517 108.564 40.0739C107.677 40.696 107.055 41.429 106.697 42.2727L104.537 41.4929C104.98 40.419 105.593 39.5625 106.377 38.9233C107.162 38.2756 108.039 37.8111 109.011 37.5298C109.983 37.2401 110.967 37.0952 111.964 37.0952C112.714 37.0952 113.494 37.1932 114.304 37.3892C115.122 37.5852 115.88 37.9261 116.579 38.4119C117.278 38.8892 117.845 39.5582 118.279 40.419C118.714 41.2713 118.931 42.3537 118.931 43.6662V57H116.656V53.8935H116.515C116.243 54.473 115.838 55.0355 115.301 55.581C114.764 56.1264 114.091 56.5739 113.281 56.9233C112.471 57.2727 111.521 57.4474 110.43 57.4474ZM110.737 55.3636C111.947 55.3636 112.995 55.0952 113.882 54.5582C114.768 54.0213 115.45 53.3097 115.927 52.4233C116.413 51.5284 116.656 50.544 116.656 49.4702V46.6321C116.485 46.794 116.2 46.9389 115.799 47.0668C115.407 47.1946 114.951 47.3097 114.431 47.4119C113.92 47.5057 113.409 47.5866 112.897 47.6548C112.386 47.723 111.926 47.7827 111.517 47.8338C110.409 47.9702 109.463 48.1832 108.679 48.473C107.895 48.7628 107.294 49.1634 106.876 49.6747C106.458 50.1776 106.25 50.8253 106.25 51.6179C106.25 52.8111 106.676 53.7358 107.528 54.392C108.38 55.0398 109.45 55.3636 110.737 55.3636ZM139.469 37.3636V57H137.181V37.3636H139.469ZM138.625 47.0668V49.2401C137.85 49.5213 137.113 49.7599 136.414 49.956C135.715 50.1435 135.012 50.2884 134.304 50.3906C133.605 50.4929 132.86 50.544 132.067 50.544C129.86 50.5355 128.125 49.9688 126.864 48.8438C125.611 47.7188 124.985 46.0057 124.985 43.7045V37.2997H127.26V43.7045C127.26 44.7955 127.456 45.6861 127.848 46.3764C128.24 47.0668 128.794 47.5781 129.51 47.9105C130.226 48.2344 131.07 48.3963 132.042 48.3963C133.235 48.3963 134.36 48.277 135.417 48.0384C136.473 47.7997 137.543 47.4759 138.625 47.0668ZM151 57.4474C149.816 57.4474 148.733 57.2173 147.753 56.7571C146.773 56.2884 145.993 55.6151 145.414 54.7372C144.834 53.8509 144.544 52.777 144.544 51.5156C144.544 50.544 144.728 49.7259 145.094 49.0611C145.461 48.3963 145.98 47.8509 146.654 47.4247C147.327 46.9986 148.124 46.6619 149.044 46.4148C149.965 46.1676 150.979 45.9759 152.087 45.8395C153.186 45.7031 154.115 45.5838 154.874 45.4815C155.641 45.3793 156.225 45.2173 156.625 44.9957C157.026 44.7741 157.226 44.4162 157.226 43.9219V43.4616C157.226 42.1236 156.826 41.071 156.025 40.304C155.232 39.5284 154.09 39.1406 152.598 39.1406C151.184 39.1406 150.029 39.4517 149.134 40.0739C148.248 40.696 147.625 41.429 147.267 42.2727L145.107 41.4929C145.55 40.419 146.164 39.5625 146.948 38.9233C147.732 38.2756 148.61 37.8111 149.581 37.5298C150.553 37.2401 151.537 37.0952 152.534 37.0952C153.284 37.0952 154.064 37.1932 154.874 37.3892C155.692 37.5852 156.451 37.9261 157.15 38.4119C157.848 38.8892 158.415 39.5582 158.85 40.419C159.284 41.2713 159.502 42.3537 159.502 43.6662V57H157.226V53.8935H157.086C156.813 54.473 156.408 55.0355 155.871 55.581C155.334 56.1264 154.661 56.5739 153.851 56.9233C153.042 57.2727 152.091 57.4474 151 57.4474ZM151.307 55.3636C152.517 55.3636 153.566 55.0952 154.452 54.5582C155.338 54.0213 156.02 53.3097 156.498 52.4233C156.983 51.5284 157.226 50.544 157.226 49.4702V46.6321C157.056 46.794 156.77 46.9389 156.37 47.0668C155.978 47.1946 155.522 47.3097 155.002 47.4119C154.49 47.5057 153.979 47.5866 153.468 47.6548C152.956 47.723 152.496 47.7827 152.087 47.8338C150.979 47.9702 150.033 48.1832 149.249 48.473C148.465 48.7628 147.864 49.1634 147.446 49.6747C147.029 50.1776 146.82 50.8253 146.82 51.6179C146.82 52.8111 147.246 53.7358 148.098 54.392C148.951 55.0398 150.02 55.3636 151.307 55.3636Z" fill="#041119"/>
</svg>
