<svg width="511" height="104" viewBox="0 0 511 104" fill="none" xmlns="http://www.w3.org/2000/svg">
<path d="M44.2712 82V29.7393C44.2712 21.5333 36.2189 15.7481 28.442 18.3667L1 27.6066L75 3" stroke="#041119" stroke-width="5"/>
<path d="M67.9432 82.4091C66.1108 82.4091 64.5256 81.983 63.1875 81.1307C61.8494 80.2699 60.8139 79.081 60.081 77.5639C59.3565 76.0384 58.9943 74.2827 58.9943 72.2969C58.9943 70.3196 59.3565 68.5639 60.081 67.0298C60.8139 65.4872 61.8239 64.2812 63.1108 63.4119C64.4063 62.5341 65.902 62.0952 67.598 62.0952C68.6634 62.0952 69.6903 62.2912 70.679 62.6832C71.6676 63.0668 72.554 63.6591 73.3381 64.4602C74.1307 65.2528 74.7571 66.2543 75.2173 67.4645C75.6776 68.6662 75.9077 70.0895 75.9077 71.7344V72.8594H60.5668V70.8523H73.581C73.581 69.5909 73.3253 68.4574 72.8139 67.4517C72.3111 66.4375 71.608 65.6364 70.7045 65.0483C69.8097 64.4602 68.7741 64.1662 67.598 64.1662C66.3537 64.1662 65.2585 64.4986 64.3125 65.1634C63.3665 65.8281 62.625 66.706 62.0881 67.7969C61.5597 68.8878 61.2912 70.081 61.2827 71.3764V72.5781C61.2827 74.1378 61.5511 75.5014 62.0881 76.669C62.6335 77.8281 63.4048 78.7273 64.402 79.3665C65.3991 80.0057 66.5795 80.3253 67.9432 80.3253C68.8722 80.3253 69.6861 80.1804 70.3849 79.8906C71.0923 79.6009 71.6847 79.2131 72.1619 78.7273C72.6477 78.233 73.0142 77.6918 73.2614 77.1037L75.4219 77.8068C75.1236 78.6335 74.6335 79.3963 73.9517 80.0952C73.2784 80.794 72.4347 81.3565 71.4205 81.7827C70.4148 82.2003 69.2557 82.4091 67.9432 82.4091ZM88.5543 82.4091C86.8583 82.4091 85.3583 81.9787 84.0543 81.1179C82.7589 80.2571 81.7447 79.0682 81.0117 77.5511C80.2788 76.0256 79.9123 74.2656 79.9123 72.2713C79.9123 70.2599 80.2788 68.4915 81.0117 66.9659C81.7447 65.4318 82.7589 64.2386 84.0543 63.3864C85.3583 62.5256 86.8583 62.0952 88.5543 62.0952C90.2504 62.0952 91.7461 62.5256 93.0415 63.3864C94.337 64.2472 95.3512 65.4403 96.0842 66.9659C96.8256 68.4915 97.1964 70.2599 97.1964 72.2713C97.1964 74.2656 96.8299 76.0256 96.0969 77.5511C95.364 79.0682 94.3455 80.2571 93.0415 81.1179C91.7461 81.9787 90.2504 82.4091 88.5543 82.4091ZM88.5543 80.3253C89.918 80.3253 91.0728 79.9588 92.0188 79.2259C92.9648 78.4929 93.6808 77.517 94.1665 76.2983C94.6609 75.0795 94.908 73.7372 94.908 72.2713C94.908 70.8054 94.6609 69.4588 94.1665 68.2315C93.6808 67.0043 92.9648 66.0199 92.0188 65.2784C91.0728 64.5369 89.918 64.1662 88.5543 64.1662C87.1992 64.1662 86.0444 64.5369 85.0898 65.2784C84.1438 66.0199 83.4237 67.0043 82.9293 68.2315C82.4435 69.4588 82.2006 70.8054 82.2006 72.2713C82.2006 73.7372 82.4435 75.0795 82.9293 76.2983C83.4237 77.517 84.1438 78.4929 85.0898 79.2259C86.0359 79.9588 87.1907 80.3253 88.5543 80.3253ZM102.192 89.3636V62.3636H104.403V66.1094H104.672C104.945 65.5213 105.32 64.9205 105.797 64.3068C106.274 63.6847 106.905 63.1605 107.689 62.7344C108.482 62.3082 109.479 62.0952 110.68 62.0952C112.3 62.0952 113.714 62.5213 114.925 63.3736C116.143 64.2173 117.089 65.402 117.763 66.9276C118.445 68.4446 118.786 70.2131 118.786 72.233C118.786 74.2614 118.445 76.0384 117.763 77.5639C117.089 79.0895 116.143 80.2784 114.925 81.1307C113.714 81.983 112.308 82.4091 110.706 82.4091C109.521 82.4091 108.528 82.196 107.727 81.7699C106.935 81.3437 106.291 80.8196 105.797 80.1974C105.311 79.5668 104.936 78.9531 104.672 78.3565H104.467V89.3636H102.192ZM104.442 72.1946C104.442 73.7798 104.676 75.1861 105.145 76.4134C105.622 77.6321 106.304 78.5909 107.19 79.2898C108.085 79.9801 109.168 80.3253 110.438 80.3253C111.741 80.3253 112.841 79.9673 113.736 79.2514C114.639 78.527 115.325 77.5511 115.794 76.3239C116.271 75.0966 116.51 73.7202 116.51 72.1946C116.51 70.6861 116.276 69.3267 115.807 68.1165C115.347 66.9062 114.665 65.9474 113.761 65.2401C112.858 64.5241 111.75 64.1662 110.438 64.1662C109.159 64.1662 108.072 64.5114 107.178 65.2017C106.283 65.8835 105.601 66.8295 105.132 68.0398C104.672 69.2415 104.442 70.6264 104.442 72.1946ZM126.053 78.7656L136.421 62.3636H139.144V82H136.869V65.598L126.539 82H123.778V62.3636H126.053V78.7656ZM156.965 82V64.473H151.558C150.151 64.4815 149.082 64.7756 148.349 65.3551C147.624 65.9347 147.262 66.7997 147.262 67.9503C147.262 69.1009 147.607 69.9659 148.298 70.5455C148.988 71.1165 149.994 71.402 151.315 71.402H157.604V73.5497H151.315C149.96 73.5497 148.809 73.3324 147.863 72.8977C146.925 72.4631 146.21 71.8281 145.715 70.9929C145.221 70.1577 144.974 69.1435 144.974 67.9503C144.974 66.7486 145.225 65.7344 145.728 64.9077C146.239 64.0724 146.985 63.4418 147.965 63.0156C148.954 62.581 150.151 62.3636 151.558 62.3636H159.138V82H156.965ZM143.734 82L149.384 72.233H151.877L146.227 82H143.734Z" fill="#041119"/>
</svg>
